<svg xmlns="http://www.w3.org/2000/svg"><symbol id="github" viewBox="-.5 -.5 17 17"><path d="M8 0C3.58 0 0 3.582 0 8c0 3.535 2.292 6.533 5.47 7.59.4.075.547-.172.547-.385 0-.19-.007-.693-.01-1.36-2.226.483-2.695-1.073-2.695-1.073-.364-.924-.89-1.17-.89-1.17-.725-.496.056-.486.056-.486.803.056 1.225.824 1.225.824.714 1.223 1.873.87 2.33.665.072-.517.278-.87.507-1.07-1.777-.2-3.644-.888-3.644-3.953 0-.873.31-1.587.823-2.147-.09-.202-.36-1.015.07-2.117 0 0 .67-.215 2.2.82.64-.178 1.32-.266 2-.27.68.004 1.36.092 2 .27 1.52-1.035 2.19-.82 2.19-.82.43 1.102.16 1.915.08 2.117.51.56.82 1.274.82 2.147 0 3.073-1.87 3.75-3.65 3.947.28.24.54.73.54 1.48 0 1.07-.01 1.93-.01 2.19 0 .21.14.46.55.38C13.71 14.53 16 11.53 16 8c0-4.418-3.582-8-8-8"/></symbol>
<symbol id="mastodon" viewBox="-.5 -.5 17 17"><path d="M8.294 0a8.294 8.294 0 1 0 0 16.589A8.294 8.294 0 0 0 8.294 0zm4.358 5.686c.074.747.01 1.963.01 2.163 0 .059-.008.595-.012.651-.091 1.438-.987 2.005-1.929 2.186-.61.12-1.265.15-1.886.165a7.63 7.63 0 0 1-2.226-.21c.034.815.376 1.298 1.503 1.298.618 0 1.226-.07 1.821-.213v.72c-.496.359-1.204.453-1.884.482a5.145 5.145 0 0 1-1.882-.224c-.844-.296-1.706-1.022-1.918-1.895-.13-.47-.21-.95-.24-1.436-.066-.728-.072-1.458-.1-2.189-.02-.51-.009-1.066.1-1.567.223-1.018 1.146-1.73 2.156-1.88.175-.025.506-.12 2.046-.12h.011c1.54 0 2.204.095 2.38.12 1.038.154 1.915.947 2.05 1.953zm-1.492 1.13v2.5h-.99V6.89c0-.51-.213-.771-.646-.771-.476 0-.714.308-.714.917v1.328h-.985V7.036c0-.609-.239-.917-.714-.917-.43 0-.646.26-.646.771v2.426h-.99v-2.5c0-.51.13-.916.391-1.217.27-.3.622-.454 1.06-.454.507 0 .89.195 1.146.584l.246.414.247-.414c.255-.389.638-.584 1.144-.584.438 0 .79.154 1.06.454.26.301.391.707.391 1.217z"/></symbol>
<symbol id="pixelfed" viewBox="-.5 -.5 17 17"><path d="M8 0a8 8 0 1 0 0 16A8 8 0 0 0 8 0zm.825 4.879c1.37 0 2.48 1.076 2.48 2.404s-1.11 2.404-2.48 2.404H7.37l-2.076 1.977V6.266c0-.766.64-1.387 1.432-1.387h2.099z"/></symbol>
<symbol id="rss" viewBox="-.5 -.5 17 17"><path d="M16 8A8 8 0 1 1 8 0a8 8 0 0 1 8 8zM4.952 10.286a1.052 1.052 0 1 0 1.487 1.488 1.052 1.052 0 0 0-1.487-1.488zm7.955.995A8.194 8.194 0 0 0 4.708 3.082a.8.8 0 0 0 0 1.599 6.593 6.593 0 0 1 6.6 6.602.8.8 0 1 0 1.6-.001zm-3.403 0a4.797 4.797 0 0 0-4.795-4.796.8.8 0 0 0 0 1.6 3.203 3.203 0 0 1 3.198 3.198.8.8 0 1 0 1.598-.001z"/></symbol>
<symbol id="email" viewBox="-.5 -.5 17 17"><path d="M16 8A8 8 0 1 1 8 0a8 8 0 0 1 8 8zM4.004 5.6v4.799c0 .44.356.8.796.8h6.399c.44 0 .801-.36.801-.8V5.6c0-.44-.36-.8-.801-.8H4.8c-.44 0-.796.36-.796.8zM8 8.399l-3.2-2v4h6.399v-4L8 8.399zm0-.8-3.2-2h6.399L8 7.6z"/></symbol>
<symbol id="code" viewBox="-.5 -.5 17 17"><path d="M16 8A8 8 0 1 1 8 0a8 8 0 0 1 8 8zM9.19 3.557a.6.6 0 0 0-.735.424l-2.07 7.726a.6.6 0 1 0 1.159.311l2.07-7.727a.6.6 0 0 0-.424-.734zm1.185 1.618a.6.6 0 0 0 0 .849c1.352 1.352 1.561 1.65 1.561 1.975s-.21.624-1.561 1.976a.6.6 0 1 0 .848.848c1.328-1.328 1.913-1.939 1.913-2.824s-.585-1.496-1.913-2.824a.6.6 0 0 0-.848 0zm-5.6 0C3.448 6.503 2.863 7.114 2.863 8s.585 1.496 1.913 2.824a.6.6 0 1 0 .848-.848C4.272 8.623 4.063 8.324 4.063 8s.21-.624 1.561-1.975a.6.6 0 1 0-.848-.849z"/></symbol></svg>
